<?xml version="1.0" ?>
<!DOCTYPE svg  PUBLIC '-//W3C//DTD SVG 1.1//EN'  'http://www.w3.org/Graphics/SVG/1.1/DTD/svg11.dtd'>
<svg height="100%" style="fill-rule:evenodd;clip-rule:evenodd;stroke-linejoin:round;stroke-miterlimit:2; fill: red;" version="1.1" viewBox="0 0 24 24" width="100%" xml:space="preserve" xmlns="http://www.w3.org/2000/svg" xmlns:serif="http://www.serif.com/" xmlns:xlink="http://www.w3.org/1999/xlink"><g id="Icon"><path d="M20.75,8.828c-0,-0.729 -0.29,-1.428 -0.805,-1.944c-0.963,-0.962 -2.867,-2.866 -3.829,-3.829c-0.516,-0.515 -1.215,-0.805 -1.944,-0.805c-1.305,0 -3.92,0 -6.172,0c-1.26,-0 -2.468,0.5 -3.359,1.391c-0.891,0.891 -1.391,2.099 -1.391,3.359c-0,2.977 -0,7.023 -0,10c-0,2.623 2.127,4.75 4.75,4.75c2.443,0 5.557,0 8,0c2.623,-0 4.75,-2.127 4.75,-4.75c-0,-2.889 -0,-6.556 -0,-8.172Zm-6.5,-5.076c-0.026,-0.001 -0.052,-0.002 -0.078,-0.002c-1.305,0 -3.92,0 -6.172,0c-0.862,-0 -1.689,0.342 -2.298,0.952c-0.61,0.609 -0.952,1.436 -0.952,2.298c-0,2.977 -0,7.023 -0,10c-0,1.795 1.455,3.25 3.25,3.25c2.443,0 5.557,0 8,0c1.795,-0 3.25,-1.455 3.25,-3.25c-0,-2.889 -0,-6.556 -0,-8.172c-0,-0.026 -0.001,-0.052 -0.002,-0.078l-2.248,0c-0.729,0 -1.429,-0.29 -1.945,-0.805c-0.515,-0.516 -0.805,-1.216 -0.805,-1.945l-0,-2.248Zm3.939,3.498l-2.439,-2.439l-0,1.189c-0,0.332 0.132,0.649 0.366,0.884c0.235,0.234 0.552,0.366 0.884,0.366l1.189,0Z"/><path d="M10.939,12.5l-0.969,-0.97c-0.293,-0.292 -0.293,-0.768 -0,-1.06c0.292,-0.293 0.768,-0.293 1.06,-0l0.97,0.969l0.97,-0.969c0.292,-0.293 0.768,-0.293 1.06,-0c0.293,0.292 0.293,0.768 0,1.06l-0.969,0.97l0.969,0.97c0.293,0.292 0.293,0.768 0,1.06c-0.292,0.293 -0.768,0.293 -1.06,0l-0.97,-0.969l-0.97,0.969c-0.292,0.293 -0.768,0.293 -1.06,0c-0.293,-0.292 -0.293,-0.768 -0,-1.06l0.969,-0.97Z"/></g></svg>