<svg width="512.000000pt" height="512.000000pt" viewBox="0 0 512.000000 512.000000" xmlns="http://www.w3.org/2000/svg">
  <g transform="translate(0.000000,512.000000) scale(0.100000,-0.100000)" fill="#F4C511" stroke="none">
    <path d="M2409 4547 c-139 -40 -265 -170 -360 -372 -47 -100 -121 -317 -111
-326 4 -4 32 -14 62 -24 30 -10 101 -35 158 -57 57 -22 105 -38 106 -37 2 2
20 56 40 119 45 139 113 274 161 320 l35 34 36 -35 36 -34 48 -100 c27 -55 63
-145 81 -200 17 -55 33 -101 34 -103 1 -1 42 13 91 31 49 19 121 44 159 57 39
12 73 25 77 29 9 8 -60 214 -105 313 -48 105 -118 210 -180 272 l-52 52 -66
33 -65 32 -70 4 -69 5 -46 -13z" />
    <path d="M1102 3775 c-87 -19 -162 -56 -216 -105 l-46 -43 -30 -61 -31 -62 -6
-70 -5 -69 16 -65 c21 -84 91 -226 155 -315 28 -38 86 -108 128 -156 l78 -87
21 17 c12 9 61 50 110 91 49 41 102 85 118 97 l28 23 -72 77 c-121 129 -220
282 -220 341 l0 22 28 12 c64 26 287 6 468 -41 l71 -18 24 13 c73 38 241 56
318 34 l34 -9 110 61 109 61 -92 39 c-238 98 -526 183 -725 213 -122 18 -288
18 -373 0z" />
    <path d="M3570 3783 c-342 -37 -862 -232 -1359 -509 l-116 -65 -49 15 c-26 9
-77 16 -112 16 l-63 0 -55 -21 -55 -20 -50 -45 -50 -45 -26 -54 -27 -54 -5
-60 -6 -60 -141 -113 c-170 -135 -407 -369 -499 -493 -82 -110 -151 -246 -173
-340 l-16 -70 5 -68 6 -68 25 -54 25 -55 48 -48 c59 -59 134 -97 233 -118 l75
-16 140 6 140 5 121 25 c170 36 457 131 668 221 l38 16 -197 113 -198 113
-131 -43 c-175 -56 -318 -85 -452 -91 l-111 -6 -36 12 -37 13 0 24 c0 35 43
117 108 204 73 99 297 321 447 443 l120 98 35 -8 c19 -4 67 -8 105 -8 l71 0
67 33 66 33 37 42 c44 51 72 110 80 171 l7 46 106 59 c400 222 806 387 1095
446 l128 26 107 1 106 1 28 -11 27 -12 0 -22 c0 -30 -49 -125 -104 -202 -24
-34 -77 -97 -116 -139 -40 -43 -71 -79 -69 -81 33 -24 177 -143 217 -179 l53
-47 53 57 c170 184 273 350 312 503 l16 65 -5 68 -6 68 -25 54 c-13 29 -43 74
-66 99 l-43 46 -61 30 c-33 17 -92 37 -131 45 l-70 15 -110 -2 c-60 -1 -126
-3 -145 -5z" />
    <path d="M2945 3041 c-71 -32 -159 -71 -194 -87 l-65 -30 125 -78 c391 -248
782 -565 942 -766 68 -85 117 -180 117 -227 l0 -31 -31 -11 c-41 -14 -168 -14
-264 0 l-76 12 -24 51 c-47 100 -151 179 -259 196 l-51 8 -55 -10 c-50 -9 -99
-30 -141 -60 l-17 -11 -58 23 c-118 46 -463 221 -615 312 l-156 93 -44 -13
c-24 -8 -87 -15 -141 -16 l-96 -2 -66 -54 c-36 -29 -66 -57 -66 -61 0 -11 288
-197 439 -283 155 -89 441 -233 588 -296 l101 -44 22 -48 c12 -26 42 -70 66
-97 l45 -50 65 -32 64 -32 68 0 67 0 48 21 c26 12 61 31 77 42 l30 21 98 -17
97 -17 135 -1 135 0 62 17 c136 36 226 105 279 213 l29 59 0 95 -1 95 -26 73
c-55 154 -173 318 -368 512 -156 157 -388 346 -600 489 -82 56 -150 101 -152
100 -2 0 -61 -26 -133 -58z" />
    <path d="M2155 1465 c-49 -19 -119 -45 -155 -56 -36 -12 -66 -23 -68 -24 -5
-4 67 -214 99 -287 47 -108 107 -204 168 -271 62 -66 116 -106 181 -131 l44
-18 79 0 78 0 64 31 65 30 56 53 c66 62 116 133 169 238 36 71 85 192 85 208
0 4 -22 15 -49 25 -65 23 -160 95 -207 157 l-39 51 -32 -97 c-45 -133 -104
-251 -152 -304 l-41 -45 -41 45 c-51 55 -117 192 -160 328 -17 56 -37 102 -43
102 -6 -1 -51 -16 -101 -35z" />
  </g>
</svg>